<svg width="45" height="42" viewBox="0 0 45 42" fill="none" xmlns="http://www.w3.org/2000/svg">
<rect y="0.230469" width="45" height="41.5385" rx="10" fill="#FFF5D9"/>
<path d="M28.0416 23.5872C30.167 24.2312 32.5 24.9382 32.5 21C32.5 15.4772 28.0228 11 22.5 11C16.9772 11 12.5 15.4772 12.5 21C12.5 26.5228 16.9772 31 22.5 31C24.9947 31 24.783 29.1195 24.5612 27.1492C24.4064 25.7733 24.2466 24.3536 25 23.5C25.5811 22.8416 26.7745 23.2032 28.0416 23.5872ZM22.5 17.25C21.4645 17.25 20.625 16.4105 20.625 15.375C20.625 14.3395 21.4645 13.5 22.5 13.5C23.5355 13.5 24.375 14.3395 24.375 15.375C24.375 16.4105 23.5355 17.25 22.5 17.25ZM28.125 21C27.0895 21 26.25 20.1605 26.25 19.125C26.25 18.0895 27.0895 17.25 28.125 17.25C29.1605 17.25 30 18.0895 30 19.125C30 20.1605 29.1605 21 28.125 21ZM18.75 19.125C18.75 20.1605 17.9105 21 16.875 21C15.8395 21 15 20.1605 15 19.125C15 18.0895 15.8395 17.25 16.875 17.25C17.9105 17.25 18.75 18.0895 18.75 19.125ZM19.375 27.25C18.3395 27.25 17.5 26.4105 17.5 25.375C17.5 24.3395 18.3395 23.5 19.375 23.5C20.4105 23.5 21.25 24.3395 21.25 25.375C21.25 26.4105 20.4105 27.25 19.375 27.25Z" fill="#FFBB38"/>
</svg>
