<svg width="30" height="30" viewBox="0 0 30 30" fill="none" xmlns="http://www.w3.org/2000/svg">
<circle cx="15" cy="15" r="15" fill="#1677FF"/>
<g clip-path="url(#clip0_151_3778)">
<path d="M22.5872 11.1633L21.2366 12.5139C21.0989 12.6516 20.8763 12.6516 20.7386 12.5139L17.4866 9.26196C17.3489 9.12427 17.3489 8.90161 17.4866 8.76392L18.8372 7.41333C19.385 6.86548 20.2757 6.86548 20.8265 7.41333L22.5872 9.17407C23.138 9.72192 23.138 10.6125 22.5872 11.1633ZM16.3265 9.92407L8.63309 17.6174L8.012 21.177C7.92704 21.6575 8.34599 22.0735 8.82645 21.9915L12.386 21.3674L20.0794 13.6741C20.2171 13.5364 20.2171 13.3137 20.0794 13.176L16.8274 9.92407C16.6868 9.78638 16.4642 9.78638 16.3265 9.92407ZM11.636 16.9583C11.4749 16.7971 11.4749 16.5393 11.636 16.3782L16.1477 11.8665C16.3089 11.7053 16.5667 11.7053 16.7278 11.8665C16.889 12.0276 16.889 12.2854 16.7278 12.4465L12.2161 16.9583C12.055 17.1194 11.7972 17.1194 11.636 16.9583ZM10.5784 19.4221H11.9847V20.4856L10.095 20.8167L9.18388 19.9055L9.51493 18.0159H10.5784V19.4221Z" fill="white"/>
</g>
<defs>
<clipPath id="clip0_151_3778">
<rect width="15" height="15" fill="white" transform="translate(8 7)"/>
</clipPath>
</defs>
</svg>
