<svg width="175" height="46" viewBox="0 0 175 46" fill="none" xmlns="http://www.w3.org/2000/svg">
<path d="M52.0148 29.4092V28.9472L52.6088 28.7712C52.9168 28.6832 53.1515 28.5512 53.3128 28.3752C53.4888 28.1992 53.6282 27.9572 53.7308 27.6492L58.1748 14.8012H60.0008L64.4228 27.7372C64.5402 28.0598 64.6722 28.3092 64.8188 28.4852C64.9655 28.6465 65.2002 28.7785 65.5228 28.8812L65.8528 28.9692V29.4092H60.2648V28.9692L60.6388 28.8592C60.9615 28.7565 61.1522 28.5952 61.2108 28.3752C61.2842 28.1552 61.2695 27.8838 61.1668 27.5612L60.2428 24.7232H55.3808L54.4348 27.5172C54.3322 27.8398 54.3028 28.1038 54.3468 28.3092C54.3908 28.5145 54.5742 28.6758 54.8968 28.7932L55.3808 28.9472V29.4092H52.0148ZM55.6008 24.0852H60.0448L57.8888 17.4632L55.6008 24.0852ZM71.5703 29.7172C70.5729 29.7172 69.6709 29.5045 68.8643 29.0792C68.0576 28.6392 67.4196 28.0085 66.9503 27.1872C66.4956 26.3512 66.2683 25.3392 66.2683 24.1512C66.2683 22.9632 66.5249 21.9512 67.0383 21.1152C67.5516 20.2792 68.2336 19.6412 69.0843 19.2012C69.9496 18.7465 70.8956 18.5192 71.9223 18.5192C72.7583 18.5192 73.4696 18.6585 74.0563 18.9372C74.6429 19.2158 75.0903 19.5752 75.3983 20.0152C75.7063 20.4405 75.8603 20.8952 75.8603 21.3792C75.8603 21.7898 75.7356 22.1052 75.4863 22.3252C75.2516 22.5452 74.9436 22.6552 74.5623 22.6552C74.1516 22.6552 73.8143 22.5085 73.5503 22.2152C73.3009 21.9218 73.1543 21.5478 73.1103 21.0932C73.0956 20.7998 73.0956 20.5505 73.1103 20.3452C73.1396 20.1398 73.1396 19.9418 73.1103 19.7512C73.0516 19.5018 72.9489 19.3332 72.8023 19.2452C72.6703 19.1572 72.4796 19.1132 72.2303 19.1132C71.3063 19.1132 70.5949 19.4872 70.0963 20.2352C69.6123 20.9685 69.3703 22.1638 69.3703 23.8212C69.3703 25.2438 69.6416 26.3365 70.1843 27.0992C70.7269 27.8618 71.5703 28.2432 72.7143 28.2432C73.3889 28.2432 73.9463 28.1185 74.3863 27.8692C74.8263 27.6052 75.2296 27.2312 75.5963 26.7472L75.9483 27.0112C75.5816 27.8912 75.0169 28.5658 74.2543 29.0352C73.5063 29.4898 72.6116 29.7172 71.5703 29.7172ZM80.0695 29.7172C79.2335 29.7172 78.5221 29.4825 77.9355 29.0132C77.3635 28.5292 77.0775 27.8398 77.0775 26.9452C77.0775 26.2412 77.4148 25.5958 78.0895 25.0092C78.7788 24.4078 79.8568 23.9678 81.3235 23.6892C81.5728 23.6305 81.8588 23.5792 82.1815 23.5352C82.5188 23.4765 82.8488 23.4178 83.1715 23.3592V21.7972C83.1715 20.7998 83.0468 20.1105 82.7975 19.7292C82.5481 19.3478 82.1521 19.1572 81.6095 19.1572H81.5435C81.2061 19.1572 80.9348 19.2672 80.7295 19.4872C80.5388 19.6925 80.4141 20.0372 80.3555 20.5212L80.2895 20.8072C80.2455 21.3938 80.0915 21.8265 79.8275 22.1052C79.5635 22.3692 79.2335 22.5012 78.8375 22.5012C78.4708 22.5012 78.1628 22.3912 77.9135 22.1712C77.6788 21.9365 77.5615 21.6358 77.5615 21.2692C77.5615 20.6678 77.7668 20.1618 78.1775 19.7512C78.5881 19.3405 79.1308 19.0325 79.8055 18.8272C80.4948 18.6218 81.2355 18.5192 82.0275 18.5192C83.3328 18.5192 84.3301 18.8345 85.0195 19.4652C85.7088 20.0958 86.0535 21.1225 86.0535 22.5452V27.4512C86.0535 28.0818 86.3541 28.3972 86.9555 28.3972H87.4615L87.6815 28.6392C87.4175 28.9765 87.1241 29.2332 86.8015 29.4092C86.4788 29.5998 86.0388 29.6952 85.4815 29.6952C84.8508 29.6952 84.3448 29.5485 83.9635 29.2552C83.5968 28.9472 83.3548 28.5438 83.2375 28.0452C82.7681 28.5438 82.3061 28.9472 81.8515 29.2552C81.3968 29.5632 80.8028 29.7172 80.0695 29.7172ZM81.3455 28.3092C81.6388 28.3092 81.9175 28.2432 82.1815 28.1112C82.4455 27.9792 82.7755 27.7592 83.1715 27.4512V23.9312C82.7901 23.9898 82.4015 24.0632 82.0055 24.1512C81.3748 24.2978 80.8615 24.5692 80.4655 24.9652C80.0841 25.3612 79.8935 25.8965 79.8935 26.5712C79.8935 27.1578 80.0255 27.5978 80.2895 27.8912C80.5681 28.1698 80.9201 28.3092 81.3455 28.3092ZM92.8003 29.7172C91.9349 29.7172 91.1576 29.5265 90.4683 29.1452C89.7789 28.7492 89.2363 28.1478 88.8403 27.3412C88.4589 26.5198 88.2683 25.4785 88.2683 24.2172C88.2683 22.9558 88.4883 21.9072 88.9283 21.0712C89.3683 20.2205 89.9549 19.5825 90.6883 19.1572C91.4216 18.7318 92.2283 18.5192 93.1083 18.5192C93.6363 18.5192 94.1423 18.5852 94.6263 18.7172C95.1103 18.8345 95.5356 19.0178 95.9023 19.2672V16.4072C95.9023 16.0992 95.8509 15.8792 95.7483 15.7472C95.6603 15.6005 95.4696 15.4905 95.1763 15.4172L94.7363 15.3292V14.9112L98.5643 13.9652L98.8503 14.1632L98.7623 17.2652V27.8472C98.7623 28.1258 98.8136 28.3605 98.9163 28.5512C99.0189 28.7272 99.2023 28.8518 99.4663 28.9252L99.7083 28.9912V29.4092L96.0563 29.6512L95.8583 28.7272C95.4623 29.0352 95.0076 29.2772 94.4943 29.4532C93.9809 29.6292 93.4163 29.7172 92.8003 29.7172ZM94.0103 28.7052C94.6409 28.7052 95.2349 28.4998 95.7923 28.0892V19.9052C95.2496 19.5678 94.6629 19.3992 94.0323 19.3992C93.3136 19.3992 92.6976 19.7805 92.1843 20.5432C91.6709 21.2912 91.4143 22.5012 91.4143 24.1732C91.4143 25.8452 91.6563 27.0185 92.1403 27.6932C92.6243 28.3678 93.2476 28.7052 94.0103 28.7052ZM106.206 18.5192C107.13 18.5192 107.922 18.7098 108.582 19.0912C109.242 19.4725 109.748 20.0005 110.1 20.6752C110.466 21.3352 110.65 22.0978 110.65 22.9632C110.65 23.1538 110.642 23.3372 110.628 23.5132C110.613 23.6745 110.584 23.8285 110.54 23.9752H103.918C103.932 25.4858 104.211 26.5712 104.754 27.2312C105.311 27.8912 106.118 28.2212 107.174 28.2212C107.907 28.2212 108.501 28.1038 108.956 27.8692C109.41 27.6198 109.828 27.2752 110.21 26.8352L110.562 27.1652C110.122 27.9718 109.52 28.6025 108.758 29.0572C108.01 29.4972 107.115 29.7172 106.074 29.7172C105.032 29.7172 104.116 29.4972 103.324 29.0572C102.532 28.6172 101.908 27.9865 101.454 27.1652C101.014 26.3292 100.794 25.3318 100.794 24.1732C100.794 22.9705 101.05 21.9512 101.564 21.1152C102.092 20.2792 102.766 19.6412 103.588 19.2012C104.424 18.7465 105.296 18.5192 106.206 18.5192ZM106.096 19.1572C105.67 19.1572 105.296 19.2818 104.974 19.5312C104.666 19.7658 104.416 20.1912 104.226 20.8072C104.05 21.4085 103.947 22.2592 103.918 23.3592H107.856C108.017 21.8778 107.958 20.8072 107.68 20.1472C107.401 19.4872 106.873 19.1572 106.096 19.1572ZM111.77 29.4092V28.9692L112.254 28.8372C112.489 28.7638 112.643 28.6612 112.716 28.5292C112.789 28.3825 112.833 28.1918 112.848 27.9572V23.6012C112.848 23.1172 112.848 22.7065 112.848 22.3692C112.848 22.0318 112.841 21.6358 112.826 21.1812C112.826 20.9318 112.789 20.7412 112.716 20.6092C112.643 20.4625 112.481 20.3598 112.232 20.3012L111.77 20.1912V19.7952L115.334 18.5192L115.598 18.7612L115.752 20.2352C116.265 19.7658 116.837 19.3625 117.468 19.0252C118.099 18.6878 118.744 18.5192 119.404 18.5192C120.137 18.5192 120.709 18.6658 121.12 18.9592C121.531 19.2525 121.846 19.6998 122.066 20.3012C122.623 19.7438 123.239 19.3112 123.914 19.0032C124.589 18.6805 125.256 18.5192 125.916 18.5192C126.913 18.5192 127.661 18.7685 128.16 19.2672C128.659 19.7658 128.908 20.5505 128.908 21.6212V27.9792C128.908 28.4485 129.113 28.7418 129.524 28.8592L129.942 28.9692V29.4092H124.992V28.9692L125.388 28.8592C125.784 28.7272 125.982 28.4265 125.982 27.9572V21.5112C125.982 20.8805 125.865 20.4552 125.63 20.2352C125.41 20.0005 125.043 19.8832 124.53 19.8832C124.134 19.8832 123.76 19.9638 123.408 20.1252C123.056 20.2865 122.667 20.5358 122.242 20.8732C122.33 21.3132 122.374 21.8192 122.374 22.3912V27.9792C122.389 28.2285 122.433 28.4265 122.506 28.5732C122.594 28.7052 122.755 28.8005 122.99 28.8592L123.364 28.9692V29.4092H118.392V28.9692L118.854 28.8372C119.089 28.7638 119.243 28.6612 119.316 28.5292C119.404 28.3825 119.448 28.1918 119.448 27.9572V21.5332C119.448 20.9318 119.338 20.5065 119.118 20.2572C118.898 20.0078 118.524 19.8832 117.996 19.8832C117.321 19.8832 116.595 20.2058 115.818 20.8512V27.9792C115.818 28.4632 116.023 28.7565 116.434 28.8592L116.808 28.9692V29.4092H111.77ZM132.118 34.7112C131.532 34.7112 131.07 34.5718 130.732 34.2932C130.395 34.0145 130.226 33.6478 130.226 33.1932C130.226 32.7825 130.366 32.4525 130.644 32.2032C130.938 31.9685 131.26 31.8512 131.612 31.8512C131.979 31.8512 132.28 31.9172 132.514 32.0492C132.749 32.1812 132.954 32.3718 133.13 32.6212L133.262 32.7972C133.6 33.2078 133.915 33.2005 134.208 32.7752C134.399 32.5258 134.582 32.2178 134.758 31.8512C134.949 31.4845 135.154 31.0005 135.374 30.3992L131.194 20.4112C131.092 20.1325 130.974 19.9198 130.842 19.7732C130.71 19.6118 130.512 19.4798 130.248 19.3772L129.874 19.2452V18.8492H135.308V19.2452L134.846 19.3772C134.524 19.4798 134.348 19.6412 134.318 19.8612C134.304 20.0665 134.355 20.3378 134.472 20.6752L136.716 26.5272L138.872 20.6312C138.99 20.3085 139.034 20.0372 139.004 19.8172C138.975 19.5972 138.792 19.4505 138.454 19.3772L137.97 19.2452V18.8492H141.248V19.2452L140.764 19.3992C140.442 19.4872 140.207 19.6192 140.06 19.7952C139.928 19.9565 139.804 20.1985 139.686 20.5212L136.166 29.9812C135.58 31.5945 134.978 32.7825 134.362 33.5452C133.761 34.3225 133.013 34.7112 132.118 34.7112ZM146.657 29.4092V28.9472L147.053 28.8372C147.376 28.7492 147.625 28.6245 147.801 28.4632C147.992 28.2872 148.182 28.0525 148.373 27.7592L151.673 22.6772L148.021 16.4952C147.845 16.2018 147.691 15.9818 147.559 15.8352C147.427 15.6885 147.214 15.5638 146.921 15.4612L146.547 15.3292V14.8672H152.333V15.3292L151.893 15.4392C151.585 15.5272 151.416 15.6812 151.387 15.9012C151.358 16.1212 151.431 16.3852 151.607 16.6932L153.785 20.3452L156.073 16.7152C156.264 16.4072 156.366 16.1358 156.381 15.9012C156.41 15.6518 156.256 15.4905 155.919 15.4172L155.545 15.3292V14.8672H158.801V15.3292L158.295 15.4612C157.987 15.5345 157.745 15.6592 157.569 15.8352C157.408 15.9965 157.239 16.2238 157.063 16.5172L154.159 21.0052L158.141 27.7592C158.302 28.0525 158.471 28.2798 158.647 28.4412C158.838 28.5878 159.072 28.7125 159.351 28.8152L159.791 28.9472V29.4092H153.763V28.9472L154.203 28.8592C154.526 28.7858 154.709 28.6318 154.753 28.3972C154.812 28.1625 154.746 27.8838 154.555 27.5612L152.047 23.3592L149.363 27.5832C149.172 27.9058 149.084 28.1845 149.099 28.4192C149.128 28.6538 149.29 28.8078 149.583 28.8812L149.847 28.9472V29.4092H146.657Z" fill="#112EC1"/>
<path fill-rule="evenodd" clip-rule="evenodd" d="M10.9985 4.89186C14.0872 6.4635 17.6827 8.928 21.375 12.1119C18.8826 14.0219 16.3288 16.2592 13.8275 18.7673C13.4553 19.1406 13.0891 19.515 12.7291 19.8901C9.72124 16.309 7.39696 12.8407 5.90905 9.85567C4.82722 7.68532 4.26581 5.92547 4.11791 4.65554C4.04523 4.03146 4.08412 3.62173 4.14293 3.38187C4.17096 3.26753 4.20075 3.2027 4.21741 3.17211C4.23228 3.14479 4.24104 3.13644 4.2423 3.13524L4.24231 3.13523L4.24241 3.13513L4.24251 3.13503C4.24373 3.13381 4.25229 3.12527 4.28012 3.11094C4.31126 3.09492 4.37715 3.06643 4.49298 3.04046C4.73598 2.98597 5.15008 2.95389 5.77875 3.0357C7.05803 3.20218 8.82523 3.78602 10.9985 4.89186ZM2.12795 1.00698C5.25454 -2.04242 14.4651 2.05607 23.8605 10.3007C31.0387 5.34317 37.3521 3.38621 39.8896 5.87035C42.5051 8.43076 40.4071 15.0217 35.1493 22.4665C40.9709 30.31 43.4543 37.3353 40.7973 39.9267C38.2425 42.4183 31.6258 40.1377 24.1653 34.7223C14.369 43.5767 4.46813 48.0153 1.12417 44.7418C-2.18375 41.5035 2.04797 31.8179 10.6761 22.112C2.83463 12.8773 -0.935604 3.99489 2.12795 1.00698ZM16.1142 21.0059C18.6851 18.4279 21.2909 16.1704 23.7928 14.2888C24.4617 14.9169 25.1309 15.5672 25.7979 16.2386C27.8264 18.2802 29.6577 20.3384 31.2642 22.3461C29.4611 24.7161 27.3243 27.1749 24.8996 29.6063C24.5344 29.9725 24.1685 30.3322 23.8023 30.6853C21.613 28.9497 19.3581 26.9403 17.1273 24.6951C16.337 23.8997 15.5767 23.1018 14.8479 22.3053C15.2607 21.8717 15.6829 21.4384 16.1142 21.0059ZM27.9456 14.1439C29.8173 16.0278 31.5377 17.9361 33.0831 19.8212C34.2857 18.051 35.2792 16.3587 36.0425 14.7979C37.1038 12.628 37.6388 10.8765 37.7681 9.62015C37.8315 9.00414 37.787 8.60345 37.7273 8.37213C37.6988 8.26181 37.6695 8.19967 37.6535 8.17082C37.6393 8.14499 37.6311 8.13723 37.63 8.13626L37.63 8.13618L37.6299 8.1361C37.6289 8.13508 37.6209 8.12707 37.5947 8.11322C37.5654 8.09775 37.5023 8.06946 37.3907 8.04259C37.1565 7.98624 36.7515 7.94693 36.1306 8.01713C34.8642 8.16029 33.103 8.71138 30.9257 9.78879C29.4752 10.5066 27.9133 11.4213 26.2827 12.5159C26.8385 13.0451 27.3932 13.588 27.9456 14.1439ZM27.1862 31.8448C29.4536 29.5713 31.4958 27.2576 33.2715 24.9885C34.8231 27.1473 36.0838 29.2075 37.0162 31.078C38.098 33.2483 38.6594 35.0082 38.8073 36.2781C38.88 36.9022 38.8411 37.3119 38.7823 37.5518C38.7543 37.6661 38.7245 37.7309 38.7078 37.7615C38.6929 37.7889 38.6842 37.7972 38.6829 37.7984L38.6828 37.7985L38.6827 37.7986C38.6815 37.7998 38.673 37.8084 38.6451 37.8227C38.614 37.8387 38.5481 37.8672 38.4322 37.8932C38.1893 37.9477 37.7751 37.9798 37.1465 37.8979C35.8672 37.7315 34.1 37.1476 31.9267 36.0418C30.2137 35.1701 28.3448 34.0238 26.3899 32.6325C26.6558 32.373 26.9213 32.1104 27.1862 31.8448ZM14.9797 26.7897C17.168 28.9923 19.3934 30.9904 21.5795 32.7455C17.5035 36.374 13.4895 39.1401 10.088 40.8233C7.91081 41.9007 6.1496 42.4518 4.88317 42.595C4.26223 42.6652 3.85729 42.6259 3.62312 42.5695C3.51144 42.5427 3.44837 42.5144 3.41906 42.4989C3.39284 42.4851 3.3849 42.477 3.3839 42.476L3.38382 42.4759L3.38374 42.4759C3.3827 42.4749 3.37452 42.4671 3.36023 42.4413C3.34426 42.4125 3.31496 42.3503 3.28649 42.24C3.22682 42.0087 3.18228 41.608 3.24567 40.992C3.37496 39.7356 3.91 37.9842 4.97124 35.8143C6.60286 32.4781 9.28574 28.5417 12.8141 24.5274C13.5109 25.2834 14.2333 26.0385 14.9797 26.7897ZM23.3738 25.7226C25.3068 25.7226 26.8738 24.17 26.8738 22.2549C26.8738 20.3397 25.3068 18.7872 23.3738 18.7872C21.4408 18.7872 19.8738 20.3397 19.8738 22.2549C19.8738 24.17 21.4408 25.7226 23.3738 25.7226Z" fill="#112EC1"/>
</svg>
