<svg width="43" height="46" viewBox="0 0 43 46" fill="none" xmlns="http://www.w3.org/2000/svg">
<path fill-rule="evenodd" clip-rule="evenodd" d="M11.4985 4.89186C14.5872 6.4635 18.1827 8.928 21.875 12.1119C19.3826 14.0219 16.8288 16.2592 14.3275 18.7673C13.9553 19.1406 13.5891 19.515 13.2291 19.8901C10.2212 16.309 7.89696 12.8407 6.40905 9.85567C5.32722 7.68532 4.76581 5.92547 4.61791 4.65554C4.54523 4.03146 4.58412 3.62173 4.64293 3.38187C4.67096 3.26753 4.70075 3.2027 4.71741 3.17211C4.73228 3.14479 4.74104 3.13644 4.7423 3.13524L4.74231 3.13523L4.74241 3.13513L4.74251 3.13503C4.74373 3.13381 4.75229 3.12527 4.78012 3.11094C4.81126 3.09492 4.87715 3.06643 4.99298 3.04046C5.23598 2.98597 5.65008 2.95389 6.27875 3.0357C7.55803 3.20218 9.32523 3.78602 11.4985 4.89186ZM2.62795 1.00698C5.75454 -2.04242 14.9651 2.05607 24.3605 10.3007C31.5387 5.34317 37.8521 3.38621 40.3896 5.87035C43.0051 8.43076 40.9071 15.0217 35.6493 22.4665C41.4709 30.31 43.9543 37.3353 41.2973 39.9267C38.7425 42.4183 32.1258 40.1377 24.6653 34.7223C14.869 43.5767 4.96813 48.0153 1.62417 44.7418C-1.68375 41.5035 2.54797 31.8179 11.1761 22.112C3.33463 12.8773 -0.435604 3.99489 2.62795 1.00698ZM16.6142 21.0059C19.1851 18.4279 21.7909 16.1704 24.2928 14.2888C24.9617 14.9169 25.6309 15.5672 26.2979 16.2386C28.3264 18.2802 30.1577 20.3384 31.7642 22.3461C29.9611 24.7161 27.8243 27.1749 25.3996 29.6063C25.0344 29.9725 24.6685 30.3322 24.3023 30.6853C22.113 28.9497 19.8581 26.9403 17.6273 24.6951C16.837 23.8997 16.0767 23.1018 15.3479 22.3053C15.7607 21.8717 16.1829 21.4384 16.6142 21.0059ZM28.4456 14.1439C30.3173 16.0278 32.0377 17.9361 33.5831 19.8212C34.7857 18.051 35.7792 16.3587 36.5425 14.7979C37.6038 12.628 38.1388 10.8765 38.2681 9.62015C38.3315 9.00414 38.287 8.60345 38.2273 8.37213C38.1988 8.26181 38.1695 8.19967 38.1535 8.17082C38.1393 8.14499 38.1311 8.13723 38.13 8.13626L38.13 8.13618L38.1299 8.1361C38.1289 8.13508 38.1209 8.12707 38.0947 8.11322C38.0654 8.09775 38.0023 8.06946 37.8907 8.04259C37.6565 7.98624 37.2515 7.94693 36.6306 8.01713C35.3642 8.16029 33.603 8.71138 31.4257 9.78879C29.9752 10.5066 28.4133 11.4213 26.7827 12.5159C27.3385 13.0451 27.8932 13.588 28.4456 14.1439ZM27.6862 31.8448C29.9536 29.5713 31.9958 27.2576 33.7715 24.9885C35.3231 27.1473 36.5838 29.2075 37.5162 31.078C38.598 33.2483 39.1594 35.0082 39.3073 36.2781C39.38 36.9022 39.3411 37.3119 39.2823 37.5518C39.2543 37.6661 39.2245 37.7309 39.2078 37.7615C39.1929 37.7889 39.1842 37.7972 39.1829 37.7984L39.1828 37.7985L39.1827 37.7986C39.1815 37.7998 39.173 37.8084 39.1451 37.8227C39.114 37.8387 39.0481 37.8672 38.9322 37.8932C38.6893 37.9477 38.2751 37.9798 37.6465 37.8979C36.3672 37.7315 34.6 37.1476 32.4267 36.0418C30.7137 35.1701 28.8448 34.0238 26.8899 32.6325C27.1558 32.373 27.4213 32.1104 27.6862 31.8448ZM15.4797 26.7897C17.668 28.9923 19.8934 30.9904 22.0795 32.7455C18.0035 36.374 13.9895 39.1401 10.588 40.8233C8.41081 41.9007 6.6496 42.4518 5.38317 42.595C4.76223 42.6652 4.35729 42.6259 4.12312 42.5695C4.01144 42.5427 3.94837 42.5144 3.91906 42.4989C3.89284 42.4851 3.8849 42.477 3.8839 42.476L3.88382 42.4759L3.88374 42.4759C3.8827 42.4749 3.87452 42.4671 3.86023 42.4413C3.84426 42.4125 3.81496 42.3503 3.78649 42.24C3.72682 42.0087 3.68228 41.608 3.74567 40.992C3.87496 39.7356 4.41 37.9842 5.47124 35.8143C7.10286 32.4781 9.78574 28.5417 13.3141 24.5274C14.0109 25.2834 14.7333 26.0385 15.4797 26.7897ZM23.8738 25.7226C25.8068 25.7226 27.3738 24.17 27.3738 22.2549C27.3738 20.3397 25.8068 18.7872 23.8738 18.7872C21.9408 18.7872 20.3738 20.3397 20.3738 22.2549C20.3738 24.17 21.9408 25.7226 23.8738 25.7226Z" fill="#112EC1"/>
</svg>
