<svg width="109" height="22" viewBox="0 0 109 22" fill="none" xmlns="http://www.w3.org/2000/svg">
<path d="M0.51484 16.4092V15.9472L1.10884 15.7712C1.41684 15.6832 1.65151 15.5512 1.81284 15.3752C1.98884 15.1992 2.12817 14.9572 2.23084 14.6492L6.67484 1.80118H8.50084L12.9228 14.7372C13.0402 15.0598 13.1722 15.3092 13.3188 15.4852C13.4655 15.6465 13.7002 15.7785 14.0228 15.8812L14.3528 15.9692V16.4092H8.76484V15.9692L9.13884 15.8592C9.46151 15.7565 9.65217 15.5952 9.71084 15.3752C9.78417 15.1552 9.76951 14.8838 9.66684 14.5612L8.74284 11.7232H3.88084L2.93484 14.5172C2.83217 14.8398 2.80284 15.1038 2.84684 15.3092C2.89084 15.5145 3.07417 15.6758 3.39684 15.7932L3.88084 15.9472V16.4092H0.51484ZM4.10084 11.0852H8.54484L6.38884 4.46318L4.10084 11.0852ZM20.0703 16.7172C19.0729 16.7172 18.1709 16.5045 17.3643 16.0792C16.5576 15.6392 15.9196 15.0085 15.4503 14.1872C14.9956 13.3512 14.7683 12.3392 14.7683 11.1512C14.7683 9.96318 15.0249 8.95118 15.5383 8.11518C16.0516 7.27918 16.7336 6.64118 17.5843 6.20118C18.4496 5.74651 19.3956 5.51918 20.4223 5.51918C21.2583 5.51918 21.9696 5.65851 22.5563 5.93718C23.1429 6.21585 23.5903 6.57518 23.8983 7.01518C24.2063 7.44051 24.3603 7.89518 24.3603 8.37918C24.3603 8.78985 24.2356 9.10518 23.9863 9.32518C23.7516 9.54518 23.4436 9.65518 23.0623 9.65518C22.6516 9.65518 22.3143 9.50851 22.0503 9.21518C21.8009 8.92185 21.6543 8.54785 21.6103 8.09318C21.5956 7.79985 21.5956 7.55051 21.6103 7.34518C21.6396 7.13985 21.6396 6.94185 21.6103 6.75118C21.5516 6.50185 21.4489 6.33318 21.3023 6.24518C21.1703 6.15718 20.9796 6.11318 20.7303 6.11318C19.8063 6.11318 19.0949 6.48718 18.5963 7.23518C18.1123 7.96851 17.8703 9.16385 17.8703 10.8212C17.8703 12.2438 18.1416 13.3365 18.6843 14.0992C19.2269 14.8618 20.0703 15.2432 21.2143 15.2432C21.8889 15.2432 22.4463 15.1185 22.8863 14.8692C23.3263 14.6052 23.7296 14.2312 24.0963 13.7472L24.4483 14.0112C24.0816 14.8912 23.5169 15.5658 22.7543 16.0352C22.0063 16.4898 21.1116 16.7172 20.0703 16.7172ZM28.5695 16.7172C27.7335 16.7172 27.0221 16.4825 26.4355 16.0132C25.8635 15.5292 25.5775 14.8398 25.5775 13.9452C25.5775 13.2412 25.9148 12.5958 26.5895 12.0092C27.2788 11.4078 28.3568 10.9678 29.8235 10.6892C30.0728 10.6305 30.3588 10.5792 30.6815 10.5352C31.0188 10.4765 31.3488 10.4178 31.6715 10.3592V8.79718C31.6715 7.79985 31.5468 7.11051 31.2975 6.72918C31.0481 6.34785 30.6521 6.15718 30.1095 6.15718H30.0435C29.7061 6.15718 29.4348 6.26718 29.2295 6.48718C29.0388 6.69251 28.9141 7.03718 28.8555 7.52118L28.7895 7.80718C28.7455 8.39385 28.5915 8.82651 28.3275 9.10518C28.0635 9.36918 27.7335 9.50118 27.3375 9.50118C26.9708 9.50118 26.6628 9.39118 26.4135 9.17118C26.1788 8.93651 26.0615 8.63585 26.0615 8.26918C26.0615 7.66785 26.2668 7.16185 26.6775 6.75118C27.0881 6.34051 27.6308 6.03251 28.3055 5.82718C28.9948 5.62185 29.7355 5.51918 30.5275 5.51918C31.8328 5.51918 32.8301 5.83451 33.5195 6.46518C34.2088 7.09585 34.5535 8.12251 34.5535 9.54518V14.4512C34.5535 15.0818 34.8541 15.3972 35.4555 15.3972H35.9615L36.1815 15.6392C35.9175 15.9765 35.6241 16.2332 35.3015 16.4092C34.9788 16.5998 34.5388 16.6952 33.9815 16.6952C33.3508 16.6952 32.8448 16.5485 32.4635 16.2552C32.0968 15.9472 31.8548 15.5438 31.7375 15.0452C31.2681 15.5438 30.8061 15.9472 30.3515 16.2552C29.8968 16.5632 29.3028 16.7172 28.5695 16.7172ZM29.8455 15.3092C30.1388 15.3092 30.4175 15.2432 30.6815 15.1112C30.9455 14.9792 31.2755 14.7592 31.6715 14.4512V10.9312C31.2901 10.9898 30.9015 11.0632 30.5055 11.1512C29.8748 11.2978 29.3615 11.5692 28.9655 11.9652C28.5841 12.3612 28.3935 12.8965 28.3935 13.5712C28.3935 14.1578 28.5255 14.5978 28.7895 14.8912C29.0681 15.1698 29.4201 15.3092 29.8455 15.3092ZM41.3003 16.7172C40.4349 16.7172 39.6576 16.5265 38.9683 16.1452C38.2789 15.7492 37.7363 15.1478 37.3403 14.3412C36.9589 13.5198 36.7683 12.4785 36.7683 11.2172C36.7683 9.95585 36.9883 8.90718 37.4283 8.07118C37.8683 7.22051 38.4549 6.58251 39.1883 6.15718C39.9216 5.73185 40.7283 5.51918 41.6083 5.51918C42.1363 5.51918 42.6423 5.58518 43.1263 5.71718C43.6103 5.83451 44.0356 6.01785 44.4023 6.26718V3.40718C44.4023 3.09918 44.3509 2.87918 44.2483 2.74718C44.1603 2.60051 43.9696 2.49051 43.6763 2.41718L43.2363 2.32918V1.91118L47.0643 0.965179L47.3503 1.16318L47.2623 4.26518V14.8472C47.2623 15.1258 47.3136 15.3605 47.4163 15.5512C47.5189 15.7272 47.7023 15.8518 47.9663 15.9252L48.2083 15.9912V16.4092L44.5563 16.6512L44.3583 15.7272C43.9623 16.0352 43.5076 16.2772 42.9943 16.4532C42.4809 16.6292 41.9163 16.7172 41.3003 16.7172ZM42.5103 15.7052C43.1409 15.7052 43.7349 15.4998 44.2923 15.0892V6.90518C43.7496 6.56785 43.1629 6.39918 42.5323 6.39918C41.8136 6.39918 41.1976 6.78051 40.6843 7.54318C40.1709 8.29118 39.9143 9.50118 39.9143 11.1732C39.9143 12.8452 40.1563 14.0185 40.6403 14.6932C41.1243 15.3678 41.7476 15.7052 42.5103 15.7052ZM54.7057 5.51918C55.6297 5.51918 56.4217 5.70985 57.0817 6.09118C57.7417 6.47251 58.2477 7.00051 58.5997 7.67518C58.9663 8.33518 59.1497 9.09785 59.1497 9.96318C59.1497 10.1538 59.1423 10.3372 59.1277 10.5132C59.113 10.6745 59.0837 10.8285 59.0397 10.9752H52.4177C52.4323 12.4858 52.711 13.5712 53.2537 14.2312C53.811 14.8912 54.6177 15.2212 55.6737 15.2212C56.407 15.2212 57.001 15.1038 57.4557 14.8692C57.9103 14.6198 58.3283 14.2752 58.7097 13.8352L59.0617 14.1652C58.6217 14.9718 58.0203 15.6025 57.2577 16.0572C56.5097 16.4972 55.615 16.7172 54.5737 16.7172C53.5323 16.7172 52.6157 16.4972 51.8237 16.0572C51.0317 15.6172 50.4083 14.9865 49.9537 14.1652C49.5137 13.3292 49.2937 12.3318 49.2937 11.1732C49.2937 9.97051 49.5503 8.95118 50.0637 8.11518C50.5917 7.27918 51.2663 6.64118 52.0877 6.20118C52.9237 5.74651 53.7963 5.51918 54.7057 5.51918ZM54.5957 6.15718C54.1703 6.15718 53.7963 6.28185 53.4737 6.53118C53.1657 6.76585 52.9163 7.19118 52.7257 7.80718C52.5497 8.40851 52.447 9.25918 52.4177 10.3592H56.3557C56.517 8.87785 56.4583 7.80718 56.1797 7.14718C55.901 6.48718 55.373 6.15718 54.5957 6.15718ZM60.2701 16.4092V15.9692L60.7541 15.8372C60.9888 15.7638 61.1428 15.6612 61.2161 15.5292C61.2894 15.3825 61.3334 15.1918 61.3481 14.9572V10.6012C61.3481 10.1172 61.3481 9.70651 61.3481 9.36918C61.3481 9.03185 61.3408 8.63585 61.3261 8.18118C61.3261 7.93185 61.2894 7.74118 61.2161 7.60918C61.1428 7.46251 60.9814 7.35985 60.7321 7.30118L60.2701 7.19118V6.79518L63.8341 5.51918L64.0981 5.76118L64.2521 7.23518C64.7654 6.76585 65.3374 6.36251 65.9681 6.02518C66.5988 5.68785 67.2441 5.51918 67.9041 5.51918C68.6374 5.51918 69.2094 5.66585 69.6201 5.95918C70.0308 6.25251 70.3461 6.69985 70.5661 7.30118C71.1234 6.74385 71.7394 6.31118 72.4141 6.00318C73.0888 5.68051 73.7561 5.51918 74.4161 5.51918C75.4134 5.51918 76.1614 5.76851 76.6601 6.26718C77.1588 6.76585 77.4081 7.55051 77.4081 8.62118V14.9792C77.4081 15.4485 77.6134 15.7418 78.0241 15.8592L78.4421 15.9692V16.4092H73.4921V15.9692L73.8881 15.8592C74.2841 15.7272 74.4821 15.4265 74.4821 14.9572V8.51118C74.4821 7.88051 74.3648 7.45518 74.1301 7.23518C73.9101 7.00051 73.5434 6.88318 73.0301 6.88318C72.6341 6.88318 72.2601 6.96385 71.9081 7.12518C71.5561 7.28651 71.1674 7.53585 70.7421 7.87318C70.8301 8.31318 70.8741 8.81918 70.8741 9.39118V14.9792C70.8888 15.2285 70.9328 15.4265 71.0061 15.5732C71.0941 15.7052 71.2554 15.8005 71.4901 15.8592L71.8641 15.9692V16.4092H66.8921V15.9692L67.3541 15.8372C67.5888 15.7638 67.7428 15.6612 67.8161 15.5292C67.9041 15.3825 67.9481 15.1918 67.9481 14.9572V8.53318C67.9481 7.93185 67.8381 7.50651 67.6181 7.25718C67.3981 7.00785 67.0241 6.88318 66.4961 6.88318C65.8214 6.88318 65.0954 7.20585 64.3181 7.85118V14.9792C64.3181 15.4632 64.5234 15.7565 64.9341 15.8592L65.3081 15.9692V16.4092H60.2701ZM80.6182 21.7112C80.0315 21.7112 79.5695 21.5718 79.2322 21.2932C78.8949 21.0145 78.7262 20.6478 78.7262 20.1932C78.7262 19.7825 78.8655 19.4525 79.1442 19.2032C79.4375 18.9685 79.7602 18.8512 80.1122 18.8512C80.4789 18.8512 80.7795 18.9172 81.0142 19.0492C81.2489 19.1812 81.4542 19.3718 81.6302 19.6212L81.7622 19.7972C82.0995 20.2078 82.4149 20.2005 82.7082 19.7752C82.8989 19.5258 83.0822 19.2178 83.2582 18.8512C83.4489 18.4845 83.6542 18.0005 83.8742 17.3992L79.6942 7.41118C79.5915 7.13251 79.4742 6.91985 79.3422 6.77318C79.2102 6.61185 79.0122 6.47985 78.7482 6.37718L78.3742 6.24518V5.84918H83.8082V6.24518L83.3462 6.37718C83.0235 6.47985 82.8475 6.64118 82.8182 6.86118C82.8035 7.06651 82.8549 7.33785 82.9722 7.67518L85.2162 13.5272L87.3722 7.63118C87.4895 7.30851 87.5335 7.03718 87.5042 6.81718C87.4749 6.59718 87.2915 6.45051 86.9542 6.37718L86.4702 6.24518V5.84918H89.7482V6.24518L89.2642 6.39918C88.9415 6.48718 88.7069 6.61918 88.5602 6.79518C88.4282 6.95651 88.3035 7.19851 88.1862 7.52118L84.6662 16.9812C84.0795 18.5945 83.4782 19.7825 82.8622 20.5452C82.2609 21.3225 81.5129 21.7112 80.6182 21.7112ZM95.1571 16.4092V15.9472L95.5531 15.8372C95.8758 15.7492 96.1251 15.6245 96.3011 15.4632C96.4918 15.2872 96.6825 15.0525 96.8731 14.7592L100.173 9.67718L96.5211 3.49518C96.3451 3.20185 96.1911 2.98185 96.0591 2.83518C95.9271 2.68851 95.7145 2.56385 95.4211 2.46118L95.0471 2.32918V1.86718H100.833V2.32918L100.393 2.43918C100.085 2.52718 99.9165 2.68118 99.8871 2.90118C99.8578 3.12118 99.9311 3.38518 100.107 3.69318L102.285 7.34518L104.573 3.71518C104.764 3.40718 104.866 3.13585 104.881 2.90118C104.91 2.65185 104.756 2.49051 104.419 2.41718L104.045 2.32918V1.86718H107.301V2.32918L106.795 2.46118C106.487 2.53451 106.245 2.65918 106.069 2.83518C105.908 2.99651 105.739 3.22385 105.563 3.51718L102.659 8.00518L106.641 14.7592C106.802 15.0525 106.971 15.2798 107.147 15.4412C107.338 15.5878 107.572 15.7125 107.851 15.8152L108.291 15.9472V16.4092H102.263V15.9472L102.703 15.8592C103.026 15.7858 103.209 15.6318 103.253 15.3972C103.312 15.1625 103.246 14.8838 103.055 14.5612L100.547 10.3592L97.8631 14.5832C97.6725 14.9058 97.5845 15.1845 97.5991 15.4192C97.6285 15.6538 97.7898 15.8078 98.0831 15.8812L98.3471 15.9472V16.4092H95.1571Z" fill="#112EC1"/>
</svg>
