<svg width="176" height="46" viewBox="0 0 176 46" fill="none" xmlns="http://www.w3.org/2000/svg">
<path d="M52.5153 29.4092V28.9472L53.1093 28.7712C53.4173 28.6832 53.652 28.5512 53.8133 28.3752C53.9893 28.1992 54.1287 27.9572 54.2313 27.6492L58.6753 14.8012H60.5013L64.9233 27.7372C65.0407 28.0598 65.1727 28.3092 65.3193 28.4852C65.466 28.6465 65.7007 28.7785 66.0233 28.8812L66.3533 28.9692V29.4092H60.7653V28.9692L61.1393 28.8592C61.462 28.7565 61.6527 28.5952 61.7113 28.3752C61.7847 28.1552 61.77 27.8838 61.6673 27.5612L60.7433 24.7232H55.8813L54.9353 27.5172C54.8327 27.8398 54.8033 28.1038 54.8473 28.3092C54.8913 28.5145 55.0747 28.6758 55.3973 28.7932L55.8813 28.9472V29.4092H52.5153ZM56.1013 24.0852H60.5453L58.3893 17.4632L56.1013 24.0852ZM72.0708 29.7172C71.0734 29.7172 70.1714 29.5045 69.3648 29.0792C68.5581 28.6392 67.9201 28.0085 67.4508 27.1872C66.9961 26.3512 66.7688 25.3392 66.7688 24.1512C66.7688 22.9632 67.0254 21.9512 67.5388 21.1152C68.0521 20.2792 68.7341 19.6412 69.5848 19.2012C70.4501 18.7465 71.3961 18.5192 72.4228 18.5192C73.2588 18.5192 73.9701 18.6585 74.5568 18.9372C75.1434 19.2158 75.5908 19.5752 75.8988 20.0152C76.2068 20.4405 76.3608 20.8952 76.3608 21.3792C76.3608 21.7898 76.2361 22.1052 75.9868 22.3252C75.7521 22.5452 75.4441 22.6552 75.0628 22.6552C74.6521 22.6552 74.3148 22.5085 74.0508 22.2152C73.8014 21.9218 73.6548 21.5478 73.6108 21.0932C73.5961 20.7998 73.5961 20.5505 73.6108 20.3452C73.6401 20.1398 73.6401 19.9418 73.6108 19.7512C73.5521 19.5018 73.4494 19.3332 73.3028 19.2452C73.1708 19.1572 72.9801 19.1132 72.7308 19.1132C71.8068 19.1132 71.0954 19.4872 70.5968 20.2352C70.1128 20.9685 69.8708 22.1638 69.8708 23.8212C69.8708 25.2438 70.1421 26.3365 70.6848 27.0992C71.2274 27.8618 72.0708 28.2432 73.2148 28.2432C73.8894 28.2432 74.4468 28.1185 74.8868 27.8692C75.3268 27.6052 75.7301 27.2312 76.0968 26.7472L76.4488 27.0112C76.0821 27.8912 75.5174 28.5658 74.7548 29.0352C74.0068 29.4898 73.1121 29.7172 72.0708 29.7172ZM80.57 29.7172C79.734 29.7172 79.0226 29.4825 78.436 29.0132C77.864 28.5292 77.578 27.8398 77.578 26.9452C77.578 26.2412 77.9153 25.5958 78.59 25.0092C79.2793 24.4078 80.3573 23.9678 81.824 23.6892C82.0733 23.6305 82.3593 23.5792 82.682 23.5352C83.0193 23.4765 83.3493 23.4178 83.672 23.3592V21.7972C83.672 20.7998 83.5473 20.1105 83.298 19.7292C83.0486 19.3478 82.6526 19.1572 82.11 19.1572H82.044C81.7066 19.1572 81.4353 19.2672 81.23 19.4872C81.0393 19.6925 80.9146 20.0372 80.856 20.5212L80.79 20.8072C80.746 21.3938 80.592 21.8265 80.328 22.1052C80.064 22.3692 79.734 22.5012 79.338 22.5012C78.9713 22.5012 78.6633 22.3912 78.414 22.1712C78.1793 21.9365 78.062 21.6358 78.062 21.2692C78.062 20.6678 78.2673 20.1618 78.678 19.7512C79.0886 19.3405 79.6313 19.0325 80.306 18.8272C80.9953 18.6218 81.736 18.5192 82.528 18.5192C83.8333 18.5192 84.8306 18.8345 85.52 19.4652C86.2093 20.0958 86.554 21.1225 86.554 22.5452V27.4512C86.554 28.0818 86.8546 28.3972 87.456 28.3972H87.962L88.182 28.6392C87.918 28.9765 87.6246 29.2332 87.302 29.4092C86.9793 29.5998 86.5393 29.6952 85.982 29.6952C85.3513 29.6952 84.8453 29.5485 84.464 29.2552C84.0973 28.9472 83.8553 28.5438 83.738 28.0452C83.2686 28.5438 82.8066 28.9472 82.352 29.2552C81.8973 29.5632 81.3033 29.7172 80.57 29.7172ZM81.846 28.3092C82.1393 28.3092 82.418 28.2432 82.682 28.1112C82.946 27.9792 83.276 27.7592 83.672 27.4512V23.9312C83.2906 23.9898 82.902 24.0632 82.506 24.1512C81.8753 24.2978 81.362 24.5692 80.966 24.9652C80.5846 25.3612 80.394 25.8965 80.394 26.5712C80.394 27.1578 80.526 27.5978 80.79 27.8912C81.0686 28.1698 81.4206 28.3092 81.846 28.3092ZM93.3008 29.7172C92.4354 29.7172 91.6581 29.5265 90.9688 29.1452C90.2794 28.7492 89.7368 28.1478 89.3408 27.3412C88.9594 26.5198 88.7688 25.4785 88.7688 24.2172C88.7688 22.9558 88.9888 21.9072 89.4288 21.0712C89.8688 20.2205 90.4554 19.5825 91.1888 19.1572C91.9221 18.7318 92.7288 18.5192 93.6088 18.5192C94.1368 18.5192 94.6428 18.5852 95.1268 18.7172C95.6108 18.8345 96.0361 19.0178 96.4028 19.2672V16.4072C96.4028 16.0992 96.3514 15.8792 96.2488 15.7472C96.1608 15.6005 95.9701 15.4905 95.6768 15.4172L95.2368 15.3292V14.9112L99.0648 13.9652L99.3508 14.1632L99.2628 17.2652V27.8472C99.2628 28.1258 99.3141 28.3605 99.4168 28.5512C99.5194 28.7272 99.7028 28.8518 99.9668 28.9252L100.209 28.9912V29.4092L96.5568 29.6512L96.3588 28.7272C95.9628 29.0352 95.5081 29.2772 94.9948 29.4532C94.4814 29.6292 93.9168 29.7172 93.3008 29.7172ZM94.5108 28.7052C95.1414 28.7052 95.7354 28.4998 96.2928 28.0892V19.9052C95.7501 19.5678 95.1634 19.3992 94.5328 19.3992C93.8141 19.3992 93.1981 19.7805 92.6848 20.5432C92.1714 21.2912 91.9148 22.5012 91.9148 24.1732C91.9148 25.8452 92.1568 27.0185 92.6408 27.6932C93.1248 28.3678 93.7481 28.7052 94.5108 28.7052ZM106.706 18.5192C107.63 18.5192 108.422 18.7098 109.082 19.0912C109.742 19.4725 110.248 20.0005 110.6 20.6752C110.967 21.3352 111.15 22.0978 111.15 22.9632C111.15 23.1538 111.143 23.3372 111.128 23.5132C111.113 23.6745 111.084 23.8285 111.04 23.9752H104.418C104.433 25.4858 104.711 26.5712 105.254 27.2312C105.811 27.8912 106.618 28.2212 107.674 28.2212C108.407 28.2212 109.001 28.1038 109.456 27.8692C109.911 27.6198 110.329 27.2752 110.71 26.8352L111.062 27.1652C110.622 27.9718 110.021 28.6025 109.258 29.0572C108.51 29.4972 107.615 29.7172 106.574 29.7172C105.533 29.7172 104.616 29.4972 103.824 29.0572C103.032 28.6172 102.409 27.9865 101.954 27.1652C101.514 26.3292 101.294 25.3318 101.294 24.1732C101.294 22.9705 101.551 21.9512 102.064 21.1152C102.592 20.2792 103.267 19.6412 104.088 19.2012C104.924 18.7465 105.797 18.5192 106.706 18.5192ZM106.596 19.1572C106.171 19.1572 105.797 19.2818 105.474 19.5312C105.166 19.7658 104.917 20.1912 104.726 20.8072C104.55 21.4085 104.447 22.2592 104.418 23.3592H108.356C108.517 21.8778 108.459 20.8072 108.18 20.1472C107.901 19.4872 107.373 19.1572 106.596 19.1572ZM112.271 29.4092V28.9692L112.755 28.8372C112.989 28.7638 113.143 28.6612 113.217 28.5292C113.29 28.3825 113.334 28.1918 113.349 27.9572V23.6012C113.349 23.1172 113.349 22.7065 113.349 22.3692C113.349 22.0318 113.341 21.6358 113.327 21.1812C113.327 20.9318 113.29 20.7412 113.217 20.6092C113.143 20.4625 112.982 20.3598 112.733 20.3012L112.271 20.1912V19.7952L115.835 18.5192L116.099 18.7612L116.253 20.2352C116.766 19.7658 117.338 19.3625 117.969 19.0252C118.599 18.6878 119.245 18.5192 119.905 18.5192C120.638 18.5192 121.21 18.6658 121.621 18.9592C122.031 19.2525 122.347 19.6998 122.567 20.3012C123.124 19.7438 123.74 19.3112 124.415 19.0032C125.089 18.6805 125.757 18.5192 126.417 18.5192C127.414 18.5192 128.162 18.7685 128.661 19.2672C129.159 19.7658 129.409 20.5505 129.409 21.6212V27.9792C129.409 28.4485 129.614 28.7418 130.025 28.8592L130.443 28.9692V29.4092H125.493V28.9692L125.889 28.8592C126.285 28.7272 126.483 28.4265 126.483 27.9572V21.5112C126.483 20.8805 126.365 20.4552 126.131 20.2352C125.911 20.0005 125.544 19.8832 125.031 19.8832C124.635 19.8832 124.261 19.9638 123.909 20.1252C123.557 20.2865 123.168 20.5358 122.743 20.8732C122.831 21.3132 122.875 21.8192 122.875 22.3912V27.9792C122.889 28.2285 122.933 28.4265 123.007 28.5732C123.095 28.7052 123.256 28.8005 123.491 28.8592L123.865 28.9692V29.4092H118.893V28.9692L119.355 28.8372C119.589 28.7638 119.743 28.6612 119.817 28.5292C119.905 28.3825 119.949 28.1918 119.949 27.9572V21.5332C119.949 20.9318 119.839 20.5065 119.619 20.2572C119.399 20.0078 119.025 19.8832 118.497 19.8832C117.822 19.8832 117.096 20.2058 116.319 20.8512V27.9792C116.319 28.4632 116.524 28.7565 116.935 28.8592L117.309 28.9692V29.4092H112.271ZM132.619 34.7112C132.032 34.7112 131.57 34.5718 131.233 34.2932C130.895 34.0145 130.727 33.6478 130.727 33.1932C130.727 32.7825 130.866 32.4525 131.145 32.2032C131.438 31.9685 131.761 31.8512 132.113 31.8512C132.479 31.8512 132.78 31.9172 133.015 32.0492C133.249 32.1812 133.455 32.3718 133.631 32.6212L133.763 32.7972C134.1 33.2078 134.415 33.2005 134.709 32.7752C134.899 32.5258 135.083 32.2178 135.259 31.8512C135.449 31.4845 135.655 31.0005 135.875 30.3992L131.695 20.4112C131.592 20.1325 131.475 19.9198 131.343 19.7732C131.211 19.6118 131.013 19.4798 130.749 19.3772L130.375 19.2452V18.8492H135.809V19.2452L135.347 19.3772C135.024 19.4798 134.848 19.6412 134.819 19.8612C134.804 20.0665 134.855 20.3378 134.973 20.6752L137.217 26.5272L139.373 20.6312C139.49 20.3085 139.534 20.0372 139.505 19.8172C139.475 19.5972 139.292 19.4505 138.955 19.3772L138.471 19.2452V18.8492H141.749V19.2452L141.265 19.3992C140.942 19.4872 140.707 19.6192 140.561 19.7952C140.429 19.9565 140.304 20.1985 140.187 20.5212L136.667 29.9812C136.08 31.5945 135.479 32.7825 134.863 33.5452C134.261 34.3225 133.513 34.7112 132.619 34.7112ZM147.158 29.4092V28.9472L147.554 28.8372C147.876 28.7492 148.126 28.6245 148.302 28.4632C148.492 28.2872 148.683 28.0525 148.874 27.7592L152.174 22.6772L148.522 16.4952C148.346 16.2018 148.192 15.9818 148.06 15.8352C147.928 15.6885 147.715 15.5638 147.422 15.4612L147.048 15.3292V14.8672H152.834V15.3292L152.394 15.4392C152.086 15.5272 151.917 15.6812 151.888 15.9012C151.858 16.1212 151.932 16.3852 152.108 16.6932L154.286 20.3452L156.574 16.7152C156.764 16.4072 156.867 16.1358 156.882 15.9012C156.911 15.6518 156.757 15.4905 156.42 15.4172L156.046 15.3292V14.8672H159.302V15.3292L158.796 15.4612C158.488 15.5345 158.246 15.6592 158.07 15.8352C157.908 15.9965 157.74 16.2238 157.564 16.5172L154.66 21.0052L158.642 27.7592C158.803 28.0525 158.972 28.2798 159.148 28.4412C159.338 28.5878 159.573 28.7125 159.852 28.8152L160.292 28.9472V29.4092H154.264V28.9472L154.704 28.8592C155.026 28.7858 155.21 28.6318 155.254 28.3972C155.312 28.1625 155.246 27.8838 155.056 27.5612L152.548 23.3592L149.864 27.5832C149.673 27.9058 149.585 28.1845 149.6 28.4192C149.629 28.6538 149.79 28.8078 150.084 28.8812L150.348 28.9472V29.4092H147.158Z" fill="#112EC1"/>
<path fill-rule="evenodd" clip-rule="evenodd" d="M11.4985 4.89186C14.5872 6.4635 18.1827 8.928 21.875 12.1119C19.3826 14.0219 16.8288 16.2592 14.3275 18.7673C13.9553 19.1406 13.5891 19.515 13.2291 19.8901C10.2212 16.309 7.89696 12.8407 6.40905 9.85567C5.32722 7.68532 4.76581 5.92547 4.61791 4.65554C4.54523 4.03146 4.58412 3.62173 4.64293 3.38187C4.67096 3.26753 4.70075 3.2027 4.71741 3.17211C4.73228 3.14479 4.74104 3.13644 4.7423 3.13524L4.74231 3.13523L4.74241 3.13513L4.74251 3.13503C4.74373 3.13381 4.75229 3.12527 4.78012 3.11094C4.81126 3.09492 4.87715 3.06643 4.99298 3.04046C5.23598 2.98597 5.65008 2.95389 6.27875 3.0357C7.55803 3.20218 9.32523 3.78602 11.4985 4.89186ZM2.62795 1.00698C5.75454 -2.04242 14.9651 2.05607 24.3605 10.3007C31.5387 5.34317 37.8521 3.38621 40.3896 5.87035C43.0051 8.43076 40.9071 15.0217 35.6493 22.4665C41.4709 30.31 43.9543 37.3353 41.2973 39.9267C38.7425 42.4183 32.1258 40.1377 24.6653 34.7223C14.869 43.5767 4.96813 48.0153 1.62417 44.7418C-1.68375 41.5035 2.54797 31.8179 11.1761 22.112C3.33463 12.8773 -0.435604 3.99489 2.62795 1.00698ZM16.6142 21.0059C19.1851 18.4279 21.7909 16.1704 24.2928 14.2888C24.9617 14.9169 25.6309 15.5672 26.2979 16.2386C28.3264 18.2802 30.1577 20.3384 31.7642 22.3461C29.9611 24.7161 27.8243 27.1749 25.3996 29.6063C25.0344 29.9725 24.6685 30.3322 24.3023 30.6853C22.113 28.9497 19.8581 26.9403 17.6273 24.6951C16.837 23.8997 16.0767 23.1018 15.3479 22.3053C15.7607 21.8717 16.1829 21.4384 16.6142 21.0059ZM28.4456 14.1439C30.3173 16.0278 32.0377 17.9361 33.5831 19.8212C34.7857 18.051 35.7792 16.3587 36.5425 14.7979C37.6038 12.628 38.1388 10.8765 38.2681 9.62015C38.3315 9.00414 38.287 8.60345 38.2273 8.37213C38.1988 8.26181 38.1695 8.19967 38.1535 8.17082C38.1393 8.14499 38.1311 8.13723 38.13 8.13626L38.13 8.13618L38.1299 8.1361C38.1289 8.13508 38.1209 8.12707 38.0947 8.11322C38.0654 8.09775 38.0023 8.06946 37.8907 8.04259C37.6565 7.98624 37.2515 7.94693 36.6306 8.01713C35.3642 8.16029 33.603 8.71138 31.4257 9.78879C29.9752 10.5066 28.4133 11.4213 26.7827 12.5159C27.3385 13.0451 27.8932 13.588 28.4456 14.1439ZM27.6862 31.8448C29.9536 29.5713 31.9958 27.2576 33.7715 24.9885C35.3231 27.1473 36.5838 29.2075 37.5162 31.078C38.598 33.2483 39.1594 35.0082 39.3073 36.2781C39.38 36.9022 39.3411 37.3119 39.2823 37.5518C39.2543 37.6661 39.2245 37.7309 39.2078 37.7615C39.1929 37.7889 39.1842 37.7972 39.1829 37.7984L39.1828 37.7985L39.1827 37.7986C39.1815 37.7998 39.173 37.8084 39.1451 37.8227C39.114 37.8387 39.0481 37.8672 38.9322 37.8932C38.6893 37.9477 38.2751 37.9798 37.6465 37.8979C36.3672 37.7315 34.6 37.1476 32.4267 36.0418C30.7137 35.1701 28.8448 34.0238 26.8899 32.6325C27.1558 32.373 27.4213 32.1104 27.6862 31.8448ZM15.4797 26.7897C17.668 28.9923 19.8934 30.9904 22.0795 32.7455C18.0035 36.374 13.9895 39.1401 10.588 40.8233C8.41081 41.9007 6.6496 42.4518 5.38317 42.595C4.76223 42.6652 4.35729 42.6259 4.12312 42.5695C4.01144 42.5427 3.94837 42.5144 3.91906 42.4989C3.89284 42.4851 3.8849 42.477 3.8839 42.476L3.88382 42.4759L3.88374 42.4759C3.8827 42.4749 3.87452 42.4671 3.86023 42.4413C3.84426 42.4125 3.81496 42.3503 3.78649 42.24C3.72682 42.0087 3.68228 41.608 3.74567 40.992C3.87496 39.7356 4.41 37.9842 5.47124 35.8143C7.10286 32.4781 9.78574 28.5417 13.3141 24.5274C14.0109 25.2834 14.7333 26.0385 15.4797 26.7897ZM23.8738 25.7226C25.8068 25.7226 27.3738 24.17 27.3738 22.2549C27.3738 20.3397 25.8068 18.7872 23.8738 18.7872C21.9408 18.7872 20.3738 20.3397 20.3738 22.2549C20.3738 24.17 21.9408 25.7226 23.8738 25.7226Z" fill="#112EC1"/>
</svg>
