<svg width="1440" height="1024" viewBox="0 0 1440 1024" fill="none" xmlns="http://www.w3.org/2000/svg">
<path fill-rule="evenodd" clip-rule="evenodd" d="M138.987 1346.1C488.858 1346.1 772.484 1148.51 772.484 904.768C772.484 774.465 321.113 882.495 192.209 801.708C79.9883 731.378 301.818 463.434 138.987 463.434C-210.883 463.434 -494.509 661.026 -494.509 904.768C-494.509 1148.51 -210.883 1346.1 138.987 1346.1Z" fill="#568AFF"/>
<path opacity="0.541829" fill-rule="evenodd" clip-rule="evenodd" d="M977.001 -220.919C906.268 58.5453 1174.12 325.043 1575.27 374.32C1789.72 400.663 1703.18 18.2839 1862.2 -68.3481C2000.63 -143.767 2396.76 87.5926 2429.68 -42.4709C2500.41 -321.935 2232.56 -588.433 1831.41 -637.71C1430.27 -686.987 1047.73 -500.383 977.001 -220.919Z" fill="#568AFF"/>
<path opacity="0.6" fill-rule="evenodd" clip-rule="evenodd" d="M63.9763 -245.605C-264.794 -162.24 -434.31 91.0156 -314.647 320.058C-250.676 442.504 120.437 233.439 281.23 278.639C421.21 317.989 344.303 622.629 497.313 583.831C826.084 500.467 995.599 247.21 875.936 18.168C756.274 -210.875 392.747 -328.97 63.9763 -245.605Z" fill="#568AFF"/>
<path fill-rule="evenodd" clip-rule="evenodd" d="M2593.52 1002.86C2671.59 694.427 2375.97 400.308 1933.25 345.924C1696.57 316.85 1792.08 738.862 1616.58 834.473C1463.79 917.709 1026.61 662.369 990.276 805.914C912.211 1114.34 1207.83 1408.46 1650.55 1462.85C2093.28 1517.23 2515.46 1311.29 2593.52 1002.86Z" fill="#568AFF"/>
</svg>
